# xmcd
#
# Track frame offsets:
#	150
#	18231
#	36305
#	54057
#	69894
#	107001
#
# Disc length: 1666 seconds
#
# Revision: 0
# Processed by: cddbd v1.5.2PL0 Copyright (c) Steve Scherf et al.
# Submitted via: EasyCDDAExtractor 12.0.1.1
#
DISCID=3e068006
DTITLE=Slow Budget - EP1
DYEAR=1900
DGENRE=Slow Budget
TTITLE0=Foah nua zua
TTITLE1=A Spua von Schottn
TTITLE2=gleich=zeitig
TTITLE3=Zoit muaﬂ wean
TTITLE4=Du kaunnst fliagn
TTITLE5=A Touch of Shadows
EXTD=
EXTT0=
EXTT1=
EXTT2=
EXTT3=
EXTT4=
EXTT5=
PLAYORDER=
